# xmcd
#
# Track frame offsets:
#	150
#	13879
#	27120
#	41411
#	56040
#	68419
#	83010
#	96290
#	108594
#	120635
#	135189
#	147419
#	161261
#	176265
#	188345
#	200761
#	215315
#	229869
#	243972
#	255301
#
# Disc length: 3594 seconds
#
# Revision: 0
# Processed by: cddbd v1.5.2PL0 Copyright (c) Steve Scherf et al.
# Submitted via: EasyCDDAExtractor 12.1.0.1
#
DISCID=fe0e0814
DTITLE=Ella Fitzgerald - Jukebox Hits
DYEAR=1900
DGENRE=
TTITLE0=My Heart And I Decided
TTITLE1=Cow Cow Boogie
TTITLE2=Into Each Life Some Rain Must Fall
TTITLE3=I'm Making Believe
TTITLE4=It's Only A Paper Moon
TTITLE5=The Frim Fram sauce
TTITLE6=You Won't Be Satisfied
TTITLE7=Stone Cold Dead In The Market
TTITLE8=Petootie Pie
TTITLE9=I Love You For Sentimental Reasons
TTITLE10=It's A Pity To Say Goodnight
TTITLE11=That's My Desire
TTITLE12=My Hapiness
TTITLE13=It's Too Soon To Know
TTITLE14=Baby It's Cold Outside
TTITLE15=I'll Never Be Free
TTITLE16=Can Anyone Explain
TTITLE17=Smooth Sailing
TTITLE18=Walkin' By The River
TTITLE19=Crying In The Chapel
EXTD=
EXTT0=
EXTT1=
EXTT2=
EXTT3=
EXTT4=
EXTT5=
EXTT6=
EXTT7=
EXTT8=
EXTT9=
EXTT10=
EXTT11=
EXTT12=
EXTT13=
EXTT14=
EXTT15=
EXTT16=
EXTT17=
EXTT18=
EXTT19=
PLAYORDER=
